<svg width="15" height="15" viewBox="0 0 15 15" fill="none" xmlns="http://www.w3.org/2000/svg">
<path d="M13.7501 10.575V12.45C13.7509 12.6241 13.7152 12.7964 13.6455 12.9558C13.5757 13.1153 13.4735 13.2585 13.3452 13.3762C13.2169 13.4938 13.0655 13.5834 12.9006 13.6392C12.7357 13.695 12.561 13.7157 12.3876 13.7C10.4644 13.491 8.61702 12.8338 6.99389 11.7812C5.48378 10.8217 4.20348 9.54136 3.24389 8.03125C2.18763 6.40075 1.53029 4.54437 1.32514 2.6125C1.30952 2.43967 1.33006 2.26547 1.38545 2.10101C1.44084 1.93655 1.52987 1.78543 1.64687 1.65726C1.76387 1.5291 1.90627 1.42669 2.06501 1.35658C2.22375 1.28646 2.39535 1.25016 2.56889 1.25H4.44389C4.74721 1.24701 5.04126 1.35442 5.27124 1.55221C5.50122 1.74999 5.65144 2.02465 5.69389 2.325C5.77303 2.92504 5.9198 3.5142 6.13139 4.08125C6.21548 4.30495 6.23368 4.54807 6.18383 4.7818C6.13399 5.01553 6.01818 5.23007 5.85014 5.4L5.05639 6.19375C5.94611 7.75847 7.24168 9.05403 8.80639 9.94375L9.60014 9.15C9.77007 8.98196 9.98461 8.86616 10.2183 8.81631C10.4521 8.76646 10.6952 8.78466 10.9189 8.86875C11.4859 9.08034 12.0751 9.22711 12.6751 9.30625C12.9787 9.34908 13.256 9.502 13.4542 9.73593C13.6524 9.96986 13.7577 10.2685 13.7501 10.575Z" stroke="white" stroke-linecap="round" stroke-linejoin="round"/>
</svg>
