<svg width="22" height="22" viewBox="0 0 22 22" fill="none" xmlns="http://www.w3.org/2000/svg">
<path d="M20.2981 15.9287V15.6787H20.2979V6.07117C20.2979 3.66182 18.338 1.70193 15.9286 1.70193H6.07104C3.66168 1.70193 1.70193 3.66184 1.70193 6.07117V15.9287C1.70193 18.3382 3.66168 20.2981 6.07104 20.2979H15.9287C18.3382 20.2979 20.2981 18.3382 20.2981 15.9287ZM6.07104 0.25H15.9286C19.1383 0.25 21.75 2.86168 21.7499 6.07116V15.9287C21.7499 19.1382 19.1383 21.7499 15.9286 21.7499H6.07104C2.86154 21.7499 0.25 19.1383 0.25 15.9287V6.07117C0.25 2.86166 2.86155 0.25 6.07104 0.25Z" fill="#BFA8A8" stroke="#555555" stroke-width="0.5"/>
<path d="M5.58105 11.0004C5.58105 8.01259 8.01211 5.58154 10.9999 5.58154C13.9876 5.58154 16.4187 8.01259 16.4187 11.0004C16.4187 13.988 13.9876 16.4189 10.9999 16.4189C8.0121 16.4189 5.58105 13.988 5.58105 11.0004ZM7.03299 11.0002C7.03299 13.1877 8.81241 14.9668 10.9999 14.9668C13.1873 14.9668 14.9667 13.1877 14.9667 11.0002C14.9667 8.81262 13.1875 7.03335 10.9999 7.03335C8.81226 7.03335 7.03299 8.81262 7.03299 11.0002Z" fill="#BFA8A8" stroke="#555555" stroke-width="0.5"/>
<path d="M17.9189 4.09528C18.1857 4.36075 18.3379 4.73031 18.3379 5.10769C18.3379 5.48376 18.1857 5.85333 17.9189 6.12009V4.09528ZM17.9189 4.09528C17.6535 3.82852 17.2839 3.67627 16.9065 3.67627C16.5304 3.67627 16.161 3.82852 15.8954 4.09528H17.9189ZM16.0717 4.27254L16.0717 4.27254L16.0726 4.27167C16.2909 4.0524 16.5964 3.92627 16.9065 3.92627C17.2181 3.92627 17.5237 4.05251 17.7417 4.27163L17.7417 4.27163L17.7426 4.27249C17.9617 4.49054 18.0879 4.79613 18.0879 5.10769C18.0879 5.41763 17.9619 5.72344 17.7423 5.94312C17.522 6.16224 17.2171 6.28911 16.9065 6.28911C16.5969 6.28911 16.2909 6.162 16.0722 5.94332C15.8521 5.7232 15.7251 5.41725 15.7251 5.10769C15.7251 4.79666 15.8521 4.49094 16.0717 4.27254Z" fill="#BFA8A8" stroke="#555555" stroke-width="0.5"/>
</svg>
