<svg width="15" height="15" viewBox="0 0 15 15" fill="none" xmlns="http://www.w3.org/2000/svg">
<g clip-path="url(#clip0)">
<path d="M12.9808 10.4744V10.3244H12.9807V4.16555C12.9807 2.62909 11.7308 1.37924 10.1943 1.37924H3.88546C2.349 1.37924 1.09924 2.6291 1.09924 4.16555V10.4744C1.09924 12.0109 2.349 13.2608 3.88546 13.2607H10.1944C11.7309 13.2607 12.9808 12.0109 12.9808 10.4744ZM3.88546 0.429999H10.1943C12.2541 0.429999 13.93 2.10595 13.9299 4.16554V10.4744C13.9299 12.534 12.2541 14.2099 10.1943 14.2099H3.88546C1.82587 14.2099 0.15 12.5341 0.15 10.4744V4.16555C0.15 2.10594 1.82587 0.429999 3.88546 0.429999Z" fill="white" stroke="white" stroke-width="0.3"/>
<path d="M3.56187 7.32012C3.56187 5.40243 5.12222 3.84208 7.0399 3.84208C8.95759 3.84208 10.5179 5.40243 10.5179 7.32012C10.5179 9.23771 8.9576 10.798 7.0399 10.798C5.12221 10.798 3.56187 9.23771 3.56187 7.32012ZM4.5111 7.32003C4.5111 8.71451 5.64546 9.84867 7.0399 9.84867C8.43435 9.84867 9.5687 8.71451 9.5687 7.32003C9.5687 5.92549 8.43445 4.79123 7.0399 4.79123C5.64536 4.79123 4.5111 5.92549 4.5111 7.32003Z" fill="white" stroke="white" stroke-width="0.3"/>
<path d="M11.4681 2.90098C11.6388 3.07088 11.7363 3.3074 11.7363 3.54892C11.7363 3.78961 11.6388 4.02613 11.4681 4.19686V2.90098ZM11.4681 2.90098C11.2982 2.73025 11.0617 2.63281 10.8202 2.63281C10.5795 2.63281 10.343 2.73025 10.1731 2.90098H11.4681ZM10.2788 3.00733L10.2788 3.00733L10.2794 3.00681C10.421 2.86458 10.6191 2.78281 10.8202 2.78281C11.0222 2.78281 11.2203 2.86465 11.3618 3.00679L11.3618 3.00679L11.3623 3.00731C11.5044 3.14876 11.5863 3.34689 11.5863 3.54892C11.5863 3.74992 11.5046 3.94818 11.3622 4.09066C11.2193 4.23276 11.0216 4.31503 10.8202 4.31503C10.6193 4.31503 10.421 4.23262 10.2791 4.09079C10.1364 3.94805 10.0541 3.74971 10.0541 3.54892C10.0541 3.34721 10.1364 3.14899 10.2788 3.00733Z" fill="white" stroke="white" stroke-width="0.3"/>
</g>
<defs>
<clipPath id="clip0">
<rect width="14.08" height="14.08" fill="white" transform="translate(0 0.279999)"/>
</clipPath>
</defs>
</svg>
