<svg width="21" height="21" viewBox="0 0 21 21" fill="none" xmlns="http://www.w3.org/2000/svg">
<path d="M20.5292 16.5963L17.2861 13.3529C16.6401 12.7095 15.5704 12.729 14.9019 13.3977L13.268 15.0313C13.1648 14.9744 13.0579 14.915 12.9456 14.8519C11.9138 14.2802 10.5016 13.4966 9.0156 12.0095C7.52517 10.5193 6.74086 9.10492 6.16741 8.07247C6.10689 7.96309 6.04892 7.85763 5.99166 7.75748L7.08825 6.66252L7.62737 6.12274C8.29687 5.45306 8.31533 4.38362 7.67087 3.73838L4.42775 0.494536C3.78329 -0.149804 2.71307 -0.130257 2.04357 0.539423L1.12955 1.45869L1.15452 1.48349C0.84804 1.87456 0.591933 2.3256 0.401346 2.81199C0.225661 3.27497 0.11628 3.71678 0.0662649 4.15949C-0.361968 7.70964 1.26035 10.9542 5.6631 15.357C11.749 21.4425 16.6535 20.9828 16.8651 20.9604C17.3259 20.9053 17.7675 20.7952 18.2163 20.6209C18.6985 20.4325 19.1492 20.1768 19.5401 19.871L19.56 19.8887L20.486 18.982C21.1541 18.3124 21.1734 17.2426 20.5292 16.5963Z" fill="#BFA8A8"/>
</svg>
