<svg width="16" height="14" viewBox="0 0 16 14" fill="none" xmlns="http://www.w3.org/2000/svg">
<path d="M15.3334 1.00002C14.695 1.45034 13.9882 1.79476 13.2401 2.02002C12.8386 1.55836 12.305 1.23115 11.7114 1.08264C11.1179 0.934127 10.4931 0.971484 9.92147 1.18966C9.34986 1.40783 8.85904 1.79629 8.5154 2.3025C8.17176 2.80871 7.99188 3.40824 8.00008 4.02002V4.68669C6.8285 4.71707 5.6676 4.45723 4.62075 3.93032C3.57391 3.40341 2.67363 2.62578 2.00008 1.66669C2.00008 1.66669 -0.666585 7.66669 5.33342 10.3334C3.96043 11.2653 2.32485 11.7326 0.666748 11.6667C6.66675 15 14.0001 11.6667 14.0001 4.00002C13.9995 3.81432 13.9816 3.62908 13.9467 3.44669C14.6272 2.77568 15.1073 1.9285 15.3334 1.00002V1.00002Z" stroke="white" stroke-linecap="round" stroke-linejoin="round"/>
</svg>
