<svg width="25" height="25" viewBox="0 0 25 25" fill="none" xmlns="http://www.w3.org/2000/svg">
<path d="M23.9584 3.12522C22.9609 3.82884 21.8564 4.367 20.6876 4.71897C20.0602 3.99763 19.2265 3.48636 18.2991 3.25431C17.3717 3.02226 16.3954 3.08063 15.5022 3.42153C14.6091 3.76242 13.8422 4.36939 13.3053 5.16034C12.7683 5.9513 12.4873 6.88807 12.5001 7.84397V8.88564C10.6695 8.9331 8.85557 8.52711 7.21988 7.70381C5.58419 6.88051 4.17749 5.66547 3.12508 4.16689C3.12508 4.16689 -1.04159 13.5419 8.33341 17.7086C6.18813 19.1648 3.63254 19.8949 1.04175 19.7919C10.4167 25.0002 21.8751 19.7919 21.8751 7.81272C21.8741 7.52257 21.8462 7.23313 21.7917 6.94814C22.8549 5.89969 23.6051 4.57596 23.9584 3.12522V3.12522Z" stroke="#BFA8A8" stroke-linecap="round" stroke-linejoin="round"/>
</svg>
