<svg width="16" height="16" viewBox="0 0 16 16" fill="none" xmlns="http://www.w3.org/2000/svg">
<g clip-path="url(#clip0)">
<path d="M14.4256 4.74878C14.3496 4.44504 14.1948 4.16675 13.9768 3.942C13.7587 3.71726 13.4853 3.55402 13.184 3.46878C12.0832 3.19998 7.68001 3.19998 7.68001 3.19998C7.68001 3.19998 3.27681 3.19998 2.17601 3.49438C1.87473 3.57962 1.60128 3.74286 1.38328 3.9676C1.16527 4.19235 1.01044 4.47064 0.934414 4.77438C0.732952 5.89154 0.634405 7.02482 0.640014 8.15998C0.632833 9.30369 0.731386 10.4456 0.934414 11.5712C1.01823 11.8655 1.17653 12.1332 1.39403 12.3484C1.61152 12.5637 1.88086 12.7192 2.17601 12.8C3.27681 13.0944 7.68001 13.0944 7.68001 13.0944C7.68001 13.0944 12.0832 13.0944 13.184 12.8C13.4853 12.7147 13.7587 12.5515 13.9768 12.3268C14.1948 12.102 14.3496 11.8237 14.4256 11.52C14.6255 10.4112 14.7241 9.2866 14.72 8.15998C14.7272 7.01627 14.6286 5.87435 14.4256 4.74878V4.74878Z" stroke="white" stroke-linecap="round" stroke-linejoin="round"/>
<path d="M6.23999 10.2528L9.91999 8.15997L6.23999 6.06717V10.2528Z" stroke="white" stroke-linecap="round" stroke-linejoin="round"/>
</g>
<defs>
<clipPath id="clip0">
<rect width="15.36" height="15.36" fill="white" transform="translate(0 0.639984)"/>
</clipPath>
</defs>
</svg>
